<svg width="176" height="52" viewBox="0 0 176 52" fill="none" xmlns="http://www.w3.org/2000/svg">
<g clip-path="url(#clip0_14933_58144)">
<path fill-rule="evenodd" clip-rule="evenodd" d="M25.9746 0C11.6438 0 0 11.6552 0 26C0 40.3448 11.6438 52 25.9746 52C40.3053 52 51.9491 40.3448 51.9491 26C51.9491 11.6552 40.3053 0 25.9746 0ZM25.9746 49.1759C13.2112 49.1759 2.82137 38.7759 2.82137 26C2.82137 13.2241 13.2112 2.82414 25.9746 2.82414C38.7379 2.82414 49.1277 13.1793 49.1277 26C49.1277 38.8207 38.7379 49.1759 25.9746 49.1759Z" fill="#549470"/>
<path fill-rule="evenodd" clip-rule="evenodd" d="M25.9746 8.02393C16.0774 8.02393 8.01636 16.0481 8.01636 25.9998C8.01636 35.9067 16.0326 43.9756 25.9746 43.9756C35.8718 43.9756 43.9329 35.9515 43.9329 25.9998C43.9329 16.0929 35.8718 8.02393 25.9746 8.02393ZM25.9746 41.1067C17.6449 41.1067 10.8825 34.3377 10.8825 25.9998C10.8825 17.6619 17.6449 10.8929 25.9746 10.8929C34.3044 10.8929 41.0667 17.6619 41.0667 25.9998C41.0667 34.3377 34.3044 41.1067 25.9746 41.1067Z" fill="#549470"/>
<path d="M72.1913 12.731L60.7715 40.0758H64.7572L67.6234 33.2172H79.8941L82.6707 39.9413L82.7155 40.0758H86.746L75.3262 12.731H72.1913ZM69.0117 29.9448L73.7588 18.4689L78.5058 29.9448H69.0117Z" fill="#292626"/>
<path d="M92.4783 11.6553H89.7464H89.5673H89.3882V40.076H92.8365V11.6553H92.6574H92.4783Z" fill="#292626"/>
<path d="M105.466 37.1174C103.45 37.1174 102.42 35.9967 102.42 33.7553L102.51 24.3864H107.436V21.2933H102.51L102.555 14.9277H98.9719V21.2933H95.5684V24.3864H98.9719L98.9271 34.3829C98.9271 36.3105 99.4198 37.7898 100.405 38.8208C101.435 39.8519 102.868 40.345 104.749 40.345C105.913 40.345 106.675 40.2553 107.257 40.1208L107.391 40.076V36.9381L107.123 36.9829C106.72 37.0277 106.137 37.1174 105.466 37.1174Z" fill="#292626"/>
<path d="M119.08 21.0688C115.99 21.0688 114.512 22.5482 113.84 23.5344V21.293H110.437V40.0757H113.93V29.3171C113.93 26.4482 116.034 24.4757 119.08 24.4757H119.259V21.0688H119.08Z" fill="#292626"/>
<path d="M134.038 32.2309C134.038 34.6516 132.515 37.1171 129.559 37.1171C126.962 37.1171 125.439 35.3688 125.439 32.4102V21.293H121.946V32.8585C121.946 37.3861 124.723 40.4343 128.843 40.4343C131.53 40.4343 133.276 39.1792 134.172 37.8792V40.0757H137.486V21.293H133.993V32.2309H134.038Z" fill="#292626"/>
<path d="M143.218 12.5967C141.964 12.5967 140.979 13.5829 140.979 14.8381C140.979 16.0932 141.964 17.0346 143.218 17.0346C144.472 17.0346 145.457 16.0484 145.457 14.8381C145.457 13.6277 144.427 12.5967 143.218 12.5967Z" fill="#292626"/>
<path d="M144.92 21.293H141.427V40.0757H144.92V21.293Z" fill="#292626"/>
<path d="M156.25 29.0486C155.982 29.0037 155.668 28.9141 155.399 28.8692C153.295 28.421 151.996 28.1072 151.996 26.5382C151.996 25.8658 152.22 25.283 152.623 24.8796C153.16 24.3417 154.056 24.0727 155.176 24.0727C155.265 24.0727 155.31 24.0727 155.399 24.0727C157.46 24.0727 158.624 25.0589 158.848 26.9417L158.893 27.121L162.386 26.8968L162.341 26.7175C161.893 23.1313 159.34 21.0244 155.534 21.0244C155.444 21.0244 155.399 21.0244 155.31 21.0244C153.026 21.0244 151.145 21.652 149.981 22.8623C149.04 23.8037 148.503 25.1037 148.503 26.583C148.503 30.3934 151.458 31.0658 154.862 31.8727C158.176 32.6796 159.251 33.083 159.251 34.7865C159.251 36.4003 157.907 37.3417 155.668 37.3417C153.295 37.3417 151.862 36.3106 151.593 34.383L151.548 34.2037L148.055 34.4279L148.1 34.6072C148.592 38.283 151.324 40.3451 155.579 40.3451C160.057 40.3451 162.699 38.1486 162.699 34.4727C162.744 30.9313 159.788 29.9003 156.25 29.0486Z" fill="#292626"/>
<path d="M175.731 36.983C175.328 37.0727 174.746 37.1623 174.029 37.1623C172.014 37.1623 170.984 36.0416 170.984 33.8002L171.074 24.4313H176V21.3382H171.074L171.118 14.9727H167.625L167.581 21.3382H164.177V24.4313H167.581L167.491 34.383C167.491 36.3106 167.984 37.7899 168.969 38.8209C169.999 39.852 171.432 40.3451 173.313 40.3451C174.477 40.3451 175.239 40.2554 175.821 40.1209L175.955 40.0761V36.9382L175.731 36.983Z" fill="#292626"/>
</g>
<defs>
<clipPath id="clip0_14933_58144">
<rect width="176" height="52" fill="white"/>
</clipPath>
</defs>
</svg>
